<svg xmlns="http://www.w3.org/2000/svg" viewBox="0 0 100 125" x="0px" y="0px"><title>Artboard 12</title><path d="M14.32,37H31.68A5.31,5.31,0,0,0,37,32H48.48A4.51,4.51,0,0,0,53,27.29V24a1,1,0,0,0-2,0v3.29A2.53,2.53,0,0,1,48.48,30H37V21h7a1,1,0,0,0,0-2H37V14.32A5.33,5.33,0,0,0,31.68,9H14.32A5.33,5.33,0,0,0,9,14.32V31.68A5.33,5.33,0,0,0,14.32,37ZM11,14.32A3.32,3.32,0,0,1,14.32,11H31.68A3.32,3.32,0,0,1,35,14.32V31.68A3.32,3.32,0,0,1,31.68,35H14.32A3.32,3.32,0,0,1,11,31.68Z"/><path d="M85.68,9H68.32A5.31,5.31,0,0,0,63,14H51.52A4.19,4.19,0,0,0,47,18.33V22a1,1,0,0,0,2,0V18.33A2.23,2.23,0,0,1,51.52,16H63v9H56a1,1,0,0,0,0,2h7v4.68A5.31,5.31,0,0,0,68,37s0,0,0,0V48.7c0,2.53,1.94,4.3,4.71,4.3H76a1,1,0,0,0,0-2H72.71C71.46,51,70,50.4,70,48.7V37h9v7a1,1,0,0,0,2,0V37h4.68A5.33,5.33,0,0,0,91,31.68V14.32A5.33,5.33,0,0,0,85.68,9ZM89,31.68A3.32,3.32,0,0,1,85.68,35H68.32A3.32,3.32,0,0,1,65,31.68V14.32A3.32,3.32,0,0,1,68.32,11H85.68A3.32,3.32,0,0,1,89,14.32Z"/><path d="M86,64s0,0,0,0V51.73C86,49,84.18,47,81.67,47H78a1,1,0,0,0,0,2h3.67C83.39,49,84,50.47,84,51.73V64H75V56a1,1,0,0,0-2,0v8H68.32a5.32,5.32,0,0,0-5.14,4H51.52A4.68,4.68,0,0,0,47,72.92V76a1,1,0,0,0,2,0V72.92A2.72,2.72,0,0,1,51.52,70H63v9H56a1,1,0,0,0,0,2h7v5.68A5.33,5.33,0,0,0,68.32,92H85.68A5.33,5.33,0,0,0,91,86.68V69.32A5.31,5.31,0,0,0,86,64Zm3,22.65A3.32,3.32,0,0,1,85.68,90H68.32A3.32,3.32,0,0,1,65,86.68V69.32A3.32,3.32,0,0,1,68.32,66H85.68A3.32,3.32,0,0,1,89,69.32Z"/><path d="M52,77a1,1,0,0,0-1,1v3.88C51,83.39,50,85,48.48,85H37V76h7a1,1,0,0,0,0-2H37V69.32A5.33,5.33,0,0,0,31.68,64H14.32A5.33,5.33,0,0,0,9,69.32V86.68A5.33,5.33,0,0,0,14.32,92H31.68A5.31,5.31,0,0,0,37,87H48.48C51.27,87,53,84.34,53,81.88V78A1,1,0,0,0,52,77ZM35,86.68A3.32,3.32,0,0,1,31.68,90H14.32A3.32,3.32,0,0,1,11,86.68V69.32A3.32,3.32,0,0,1,14.32,66H31.68A3.32,3.32,0,0,1,35,69.32Z"/></svg>
