<svg xmlns="http://www.w3.org/2000/svg" xmlns:xlink="http://www.w3.org/1999/xlink" version="1.1" x="0px" y="0px" viewBox="0 0 100 125" style="enable-background:new 0 0 100 100;" xml:space="preserve"><g><polygon points="53.982,60.439 48.497,62.86 53.982,66.044  "/><polygon points="53.982,72.464 53.982,68.426 48.962,65.443  "/><polygon points="53.982,53.151 48.594,62.081 53.982,59.704  "/><polygon points="54.733,72.464 59.753,65.443 54.733,68.426  "/><polygon points="54.733,53.151 54.733,59.737 60.149,62.128  "/><polygon points="54.733,60.473 54.733,66.044 60.185,62.879  "/><polygon points="43.374,11.885 40.213,13.28 43.374,15.115  "/><polygon points="43.374,16.487 40.481,14.768 43.374,18.814  "/><polygon points="43.374,7.686 40.269,12.831 43.374,11.461  "/><polygon points="43.806,16.487 43.806,18.814 46.699,14.768  "/><polygon points="43.806,7.686 43.806,11.481 46.927,12.858  "/><polygon points="43.806,11.905 43.806,15.115 46.948,13.291  "/><polygon points="25.32,44.536 25.32,42.294 23.126,43.263  "/><polygon points="25.32,47.103 25.32,45.489 23.312,44.295  "/><polygon points="25.32,42 25.32,39.38 23.165,42.951  "/><polygon points="25.62,47.103 27.627,44.295 25.62,45.489  "/><polygon points="25.62,39.38 25.62,42.014 27.786,42.97  "/><polygon points="25.62,44.536 27.8,43.27 25.62,42.308  "/><polygon points="10.719,60.083 8.526,61.051 10.719,62.325  "/><polygon points="10.719,64.892 10.719,63.277 8.712,62.084  "/><polygon points="10.719,57.169 8.565,60.74 10.719,59.789  "/><polygon points="11.019,64.892 13.027,62.084 11.019,63.277  "/><polygon points="11.019,57.169 11.019,59.803 13.185,60.758  "/><polygon points="11.019,60.097 11.019,62.325 13.2,61.059  "/><polygon points="91.533,9.343 89.339,10.311 91.533,11.585  "/><polygon points="91.533,12.538 89.525,11.344 91.533,14.152  "/><polygon points="91.533,6.429 89.378,10 91.533,9.049  "/><polygon points="91.833,12.538 91.833,14.152 93.841,11.344  "/><polygon points="91.833,6.429 91.833,9.063 93.999,10.019  "/><polygon points="91.833,9.357 91.833,11.585 94.013,10.319  "/><polygon points="87.385,85.024 83.584,86.701 87.385,88.908  "/><polygon points="87.385,93.356 87.385,90.558 83.907,88.491  "/><polygon points="87.385,79.974 83.652,86.162 87.385,84.514  "/><polygon points="87.905,93.356 91.383,88.491 87.905,90.558  "/><polygon points="87.905,79.974 87.905,84.538 91.658,86.194  "/><path d="M90.93,76.737V65.249c2.024-1.082,3.402-3.215,3.402-5.67c0-2.909-1.934-5.364-4.585-6.156l3.566-37.389   c2.523-0.711,4.374-3.025,4.374-5.775c0-3.317-2.689-6.005-6.005-6.005s-6.005,2.689-6.005,6.005c0,0.938,0.221,1.822,0.605,2.613   l-34.831,3.947c0.507-1.1,0.791-2.324,0.791-3.615c0-4.779-3.874-8.652-8.652-8.652c-4.779,0-8.652,3.874-8.652,8.652   c0,0.681,0.081,1.343,0.23,1.979L19.78,12.236c0.004-0.11,0.008-0.22,0.008-0.331c0-4.926-3.993-8.919-8.919-8.919   S1.95,6.979,1.95,11.905c0,4.101,2.769,7.553,6.539,8.595l0.129,34.934c-2.2,0.891-3.754,3.045-3.754,5.565   c0,3.317,2.689,6.005,6.005,6.005c1.095,0,2.117-0.297,3.001-0.809l4.062,10.247c-3.074,1.408-5.211,4.509-5.211,8.112   c0,4.926,3.993,8.919,8.919,8.919s8.919-3.993,8.919-8.919c0-2.022-0.674-3.885-1.807-5.381l12.605-8.932   c2.597,4.485,7.444,7.504,13,7.504c4.842,0,9.146-2.294,11.892-5.852l1.294,1.241l0.735-0.767l-1.404-1.345   c1.577-2.376,2.498-5.226,2.498-8.292c0-0.142-0.007-0.282-0.011-0.422l12.192-1.775c0.461,3.097,3.124,5.476,6.35,5.476   c0.685,0,1.344-0.11,1.964-0.308v10.747c-0.717-0.156-1.46-0.241-2.224-0.241c-5.746,0-10.405,4.658-10.405,10.405   c0,5.746,4.658,10.405,10.405,10.405c5.746,0,10.405-4.658,10.405-10.405C98.05,82.012,95.066,78.113,90.93,76.737z M90.87,59.654   c-0.01,0.037-0.034,0.069-0.067,0.089l-2.809,1.631c-0.022,0.013-0.047,0.019-0.072,0.019c-0.006,0-0.011-0.002-0.017-0.002   c-0.006,0.001-0.011,0.002-0.017,0.002c-0.025,0-0.05-0.007-0.072-0.019l-2.809-1.631c-0.001-0.001-0.002-0.002-0.003-0.002   c-0.002-0.001-0.005-0.003-0.007-0.005c-0.008-0.006-0.015-0.012-0.022-0.019c-0.002-0.002-0.005-0.005-0.007-0.007   c-0.008-0.01-0.015-0.02-0.02-0.031c0-0.001-0.001-0.001-0.001-0.002c-0.002-0.004-0.002-0.008-0.004-0.012   c-0.001-0.004-0.003-0.007-0.004-0.011c0-0.001,0-0.002,0-0.003c-0.001-0.005-0.002-0.01-0.002-0.016   c-0.001-0.004-0.001-0.008-0.001-0.012c0-0.005,0-0.011,0.001-0.016c0-0.004,0-0.008,0.001-0.012   c0.001-0.005,0.002-0.01,0.004-0.015c0.001-0.004,0.002-0.008,0.003-0.012c0.002-0.005,0.004-0.01,0.007-0.014   c0.002-0.003,0.003-0.007,0.005-0.01l2.809-4.656c0.031-0.051,0.089-0.077,0.146-0.067c0.053-0.004,0.105,0.02,0.134,0.067   l2.809,4.656C90.874,59.577,90.88,59.616,90.87,59.654z M88.909,10.285c0-0.004,0-0.008,0.001-0.011   c0.001-0.005,0.002-0.01,0.004-0.014c0.001-0.004,0.002-0.007,0.003-0.011c0.002-0.005,0.004-0.009,0.006-0.014   c0.002-0.003,0.003-0.006,0.004-0.009l2.625-4.35c0.029-0.047,0.083-0.072,0.137-0.063c0.05-0.003,0.098,0.019,0.125,0.063   l2.625,4.35c0.019,0.031,0.024,0.068,0.015,0.103c-0.009,0.035-0.032,0.065-0.063,0.083l-2.625,1.523   c-0.021,0.012-0.044,0.018-0.068,0.018c-0.005,0-0.01-0.001-0.015-0.002c-0.005,0.001-0.01,0.002-0.015,0.002   c-0.023,0-0.047-0.006-0.068-0.018l-2.625-1.523c-0.001-0.001-0.002-0.001-0.003-0.002c-0.002-0.001-0.004-0.003-0.006-0.005   c-0.007-0.005-0.014-0.011-0.021-0.018c-0.002-0.002-0.004-0.004-0.006-0.007c-0.007-0.009-0.014-0.019-0.018-0.029   c0-0.001-0.001-0.001-0.001-0.002c-0.002-0.004-0.002-0.007-0.004-0.011c-0.001-0.003-0.003-0.007-0.004-0.01   c0-0.001,0-0.002,0-0.002c-0.001-0.005-0.002-0.01-0.002-0.015c-0.001-0.004-0.001-0.008-0.001-0.012   C88.908,10.295,88.909,10.29,88.909,10.285z M88.944,10.81c0.043-0.047,0.113-0.057,0.168-0.025l2.571,1.528l2.571-1.528   c0.055-0.033,0.125-0.022,0.168,0.025c0.043,0.047,0.047,0.118,0.01,0.169l-2.625,3.671c-0.026,0.036-0.067,0.056-0.109,0.056   c-0.005,0-0.01-0.002-0.015-0.002c-0.005,0.001-0.01,0.002-0.015,0.002c-0.043,0-0.084-0.02-0.109-0.056l-2.625-3.671   C88.896,10.927,88.901,10.857,88.944,10.81z M86.707,13.892L75.421,26.119c-1.584-1.757-3.876-2.861-6.428-2.861   c-2.572,0-4.88,1.123-6.465,2.904L49.501,19.52c0.498-0.466,0.94-0.989,1.317-1.561L86.707,13.892z M54.031,51.768   c0.071-0.119,0.207-0.179,0.342-0.157c0.124-0.009,0.246,0.048,0.312,0.157l6.563,10.877c0.047,0.077,0.06,0.17,0.038,0.257   c-0.023,0.087-0.079,0.162-0.157,0.208l-6.563,3.809c-0.052,0.03-0.111,0.045-0.169,0.045c-0.013,0-0.026-0.004-0.039-0.005   c-0.013,0.001-0.026,0.005-0.039,0.005c-0.058,0-0.117-0.015-0.169-0.045l-6.563-3.809c-0.003-0.001-0.005-0.004-0.007-0.005   c-0.006-0.003-0.011-0.008-0.016-0.012c-0.019-0.013-0.036-0.028-0.051-0.044c-0.005-0.006-0.011-0.011-0.016-0.017   c-0.018-0.022-0.034-0.046-0.046-0.073c-0.001-0.002-0.002-0.003-0.003-0.004c-0.004-0.009-0.006-0.018-0.009-0.027   c-0.003-0.009-0.007-0.017-0.009-0.025c-0.001-0.002,0-0.004-0.001-0.006c-0.003-0.012-0.004-0.024-0.006-0.037   c-0.001-0.01-0.003-0.019-0.003-0.029c0-0.013,0.001-0.025,0.002-0.038c0.001-0.009,0.001-0.019,0.002-0.028   c0.002-0.012,0.006-0.024,0.009-0.036c0.003-0.009,0.004-0.019,0.008-0.028c0.004-0.012,0.01-0.023,0.016-0.034   c0.004-0.007,0.006-0.015,0.011-0.023L54.031,51.768z M54.358,47.712c-5.402,0-10.137,2.854-12.782,7.136l-10.492-9.521   c0.249-0.659,0.391-1.371,0.391-2.117c0-1.515-0.566-2.896-1.492-3.952l9.902-18.233c1.123,0.533,2.379,0.832,3.705,0.832   c0.455,0,0.901-0.035,1.336-0.103l0.053,0.226l1.033-0.244l-0.05-0.211c0.958-0.273,1.848-0.706,2.64-1.27l13.258,6.76   c-0.958,1.393-1.52,3.079-1.52,4.897c0,3.119,1.651,5.851,4.125,7.374l-3.357,10.033C59.079,48.292,56.787,47.712,54.358,47.712z    M39.401,61.426L16.86,60.721c-0.044-0.948-0.301-1.84-0.734-2.623l5.802-10.046c0.994,0.728,2.215,1.163,3.542,1.163   c2.176,0,4.076-1.161,5.129-2.894l10.44,9.474C40.147,57.505,39.575,59.408,39.401,61.426z M28.219,43.93l-2.625,3.671   c-0.026,0.036-0.067,0.056-0.11,0.056c-0.005,0-0.01-0.002-0.015-0.002c-0.005,0.001-0.01,0.002-0.015,0.002   c-0.043,0-0.084-0.02-0.109-0.056L22.72,43.93c-0.037-0.052-0.033-0.122,0.01-0.169c0.043-0.047,0.113-0.057,0.168-0.025   l2.571,1.528l2.571-1.528c0.055-0.033,0.125-0.022,0.168,0.025C28.252,43.808,28.256,43.878,28.219,43.93z M28.24,43.28   c-0.009,0.035-0.032,0.065-0.063,0.083l-2.625,1.523c-0.021,0.012-0.044,0.018-0.068,0.018c-0.005,0-0.01-0.001-0.015-0.002   c-0.005,0.001-0.01,0.002-0.015,0.002c-0.023,0-0.047-0.006-0.068-0.018l-2.625-1.523c-0.001-0.001-0.002-0.001-0.003-0.002   c-0.002-0.001-0.004-0.003-0.006-0.005c-0.007-0.005-0.014-0.011-0.021-0.018c-0.002-0.002-0.004-0.004-0.006-0.007   c-0.007-0.009-0.014-0.019-0.018-0.029c0-0.001-0.001-0.001-0.001-0.002c-0.002-0.004-0.002-0.007-0.003-0.011   c-0.001-0.003-0.003-0.007-0.004-0.01c0-0.001,0-0.002,0-0.002c-0.001-0.005-0.002-0.01-0.002-0.015   c0-0.004-0.001-0.008-0.001-0.012c0-0.005,0-0.01,0.001-0.015c0-0.004,0-0.008,0.001-0.011c0.001-0.005,0.002-0.01,0.004-0.014   c0.001-0.004,0.002-0.007,0.003-0.011c0.002-0.005,0.004-0.009,0.006-0.014c0.001-0.003,0.003-0.006,0.004-0.009l2.625-4.35   c0.029-0.047,0.083-0.072,0.137-0.063c0.05-0.003,0.098,0.019,0.125,0.063l2.625,4.35C28.244,43.208,28.249,43.245,28.24,43.28z    M65.032,32.948c-0.053-0.075-0.047-0.176,0.015-0.244c0.062-0.068,0.163-0.082,0.242-0.035l3.705,2.202l3.705-2.202   c0.079-0.047,0.18-0.032,0.242,0.035c0.062,0.068,0.068,0.169,0.015,0.244l-3.782,5.289c-0.037,0.052-0.096,0.081-0.158,0.081   c-0.007,0-0.015-0.003-0.022-0.003c-0.007,0.001-0.015,0.003-0.022,0.003c-0.061,0-0.121-0.029-0.158-0.081L65.032,32.948z    M64.996,31.97c0-0.007,0-0.014,0.001-0.022c0-0.005,0-0.011,0.001-0.016c0.001-0.007,0.003-0.014,0.005-0.021   c0.001-0.005,0.003-0.011,0.004-0.016c0.003-0.007,0.006-0.013,0.009-0.02c0.002-0.004,0.004-0.009,0.006-0.013l3.782-6.268   c0.041-0.068,0.119-0.103,0.197-0.091c0.072-0.005,0.142,0.028,0.18,0.091l3.782,6.268c0.027,0.045,0.035,0.098,0.022,0.148   c-0.013,0.05-0.046,0.093-0.091,0.12l-3.782,2.195c-0.03,0.017-0.064,0.026-0.097,0.026c-0.007,0-0.015-0.002-0.022-0.003   c-0.007,0.001-0.015,0.003-0.022,0.003c-0.034,0-0.067-0.009-0.097-0.026l-3.782-2.195c-0.001-0.001-0.003-0.002-0.004-0.003   c-0.003-0.002-0.006-0.005-0.009-0.007c-0.011-0.008-0.021-0.016-0.03-0.026c-0.003-0.003-0.006-0.006-0.009-0.01   c-0.01-0.013-0.019-0.027-0.026-0.042c0-0.001-0.001-0.001-0.002-0.002c-0.002-0.005-0.003-0.01-0.005-0.016   c-0.002-0.005-0.004-0.01-0.005-0.015c0-0.001,0-0.002-0.001-0.003C65,32,64.999,31.993,64.998,31.986   C64.997,31.981,64.996,31.975,64.996,31.97z M39.594,13.242c0-0.005,0-0.011,0.001-0.016c0.001-0.007,0.003-0.014,0.005-0.021   c0.001-0.005,0.003-0.011,0.004-0.016c0.003-0.007,0.006-0.013,0.009-0.02c0.002-0.004,0.004-0.009,0.006-0.013l3.782-6.268   c0.041-0.068,0.119-0.103,0.197-0.091c0.072-0.005,0.142,0.028,0.18,0.091l3.782,6.268c0.027,0.045,0.035,0.098,0.022,0.148   c-0.013,0.05-0.046,0.093-0.091,0.12l-3.782,2.195c-0.03,0.017-0.064,0.026-0.097,0.026c-0.007,0-0.015-0.002-0.022-0.003   c-0.007,0.001-0.015,0.003-0.022,0.003c-0.034,0-0.067-0.009-0.097-0.026l-3.782-2.195c-0.001-0.001-0.003-0.002-0.004-0.003   c-0.003-0.002-0.006-0.005-0.009-0.007c-0.011-0.008-0.021-0.016-0.03-0.026c-0.003-0.003-0.006-0.006-0.009-0.01   c-0.011-0.013-0.02-0.027-0.026-0.042c0-0.001-0.001-0.002-0.002-0.002c-0.002-0.005-0.003-0.01-0.005-0.016   c-0.002-0.005-0.004-0.01-0.005-0.015c0-0.001,0-0.002-0.001-0.003c-0.002-0.007-0.002-0.014-0.003-0.021   c-0.001-0.006-0.002-0.011-0.002-0.017C39.592,13.256,39.593,13.249,39.594,13.242z M39.643,13.998   c0.062-0.068,0.163-0.082,0.242-0.035l3.705,2.202l3.705-2.202c0.079-0.047,0.18-0.032,0.242,0.035   c0.062,0.068,0.068,0.169,0.015,0.244l-3.782,5.289c-0.037,0.052-0.096,0.081-0.158,0.081c-0.007,0-0.015-0.003-0.022-0.003   c-0.007,0.001-0.015,0.003-0.022,0.003c-0.061,0-0.121-0.029-0.158-0.081l-3.782-5.289C39.575,14.167,39.581,14.066,39.643,13.998z    M6.75,11.944c0-0.006,0-0.011,0.001-0.017c0.001-0.007,0.003-0.014,0.005-0.021c0.002-0.006,0.003-0.011,0.005-0.017   c0.003-0.007,0.006-0.013,0.01-0.02c0.002-0.004,0.004-0.009,0.006-0.013l3.898-6.461c0.043-0.07,0.123-0.106,0.203-0.093   c0.074-0.005,0.146,0.028,0.185,0.093l3.898,6.461c0.028,0.046,0.036,0.101,0.022,0.153c-0.013,0.052-0.047,0.096-0.093,0.123   l-3.898,2.263c-0.031,0.018-0.066,0.027-0.1,0.027c-0.008,0-0.015-0.002-0.023-0.003c-0.008,0.001-0.015,0.003-0.023,0.003   c-0.035,0-0.069-0.009-0.1-0.027l-3.898-2.263c-0.002-0.001-0.003-0.002-0.004-0.003c-0.003-0.002-0.006-0.005-0.01-0.007   c-0.011-0.008-0.021-0.017-0.031-0.026c-0.003-0.003-0.006-0.007-0.009-0.01c-0.011-0.013-0.02-0.028-0.027-0.043   c0-0.001-0.001-0.002-0.002-0.002c-0.002-0.005-0.003-0.011-0.005-0.016c-0.002-0.005-0.004-0.01-0.006-0.015   c0-0.001,0-0.002-0.001-0.004c-0.002-0.007-0.002-0.015-0.003-0.022c-0.001-0.006-0.002-0.011-0.002-0.017   C6.748,11.959,6.749,11.951,6.75,11.944z M6.801,12.723c0.064-0.07,0.168-0.085,0.249-0.037l3.819,2.27l3.819-2.27   c0.081-0.048,0.185-0.033,0.249,0.037c0.064,0.07,0.07,0.175,0.015,0.252l-3.898,5.452c-0.038,0.053-0.099,0.084-0.163,0.084   c-0.008,0-0.015-0.003-0.023-0.004c-0.008,0.001-0.015,0.004-0.023,0.004c-0.063,0-0.124-0.03-0.163-0.084l-3.898-5.452   C6.731,12.898,6.737,12.793,6.801,12.723z M9.552,20.726c0.43,0.064,0.87,0.098,1.318,0.098c4.452,0,8.141-3.262,8.81-7.526   l15.844,3.035c0.672,1.732,1.885,3.193,3.433,4.177l-9.77,17.99c-1.023-0.808-2.312-1.294-3.717-1.294   c-0.791,0-1.544,0.157-2.235,0.435l-0.053-0.12l-0.971,0.43l0.077,0.174c-1.693,1.062-2.823,2.94-2.823,5.086   c0,1.6,0.63,3.051,1.65,4.127l-5.656,9.793c-1.102-1.305-2.748-2.136-4.589-2.136c-0.408,0-0.806,0.042-1.19,0.119L9.552,20.726z    M8.096,61.025c0-0.004,0-0.008,0.001-0.011c0.001-0.005,0.002-0.01,0.004-0.014c0.001-0.004,0.002-0.007,0.003-0.011   c0.002-0.005,0.004-0.009,0.006-0.014c0.002-0.003,0.003-0.006,0.004-0.009l2.625-4.35c0.029-0.047,0.083-0.072,0.137-0.063   c0.05-0.003,0.098,0.019,0.125,0.063l2.625,4.35c0.019,0.031,0.024,0.068,0.015,0.103c-0.009,0.035-0.032,0.065-0.063,0.083   l-2.625,1.523c-0.021,0.012-0.044,0.018-0.068,0.018c-0.005,0-0.01-0.001-0.015-0.002c-0.005,0.001-0.01,0.002-0.015,0.002   c-0.023,0-0.047-0.006-0.068-0.018l-2.625-1.523c-0.001-0.001-0.002-0.001-0.003-0.002c-0.002-0.001-0.004-0.003-0.006-0.005   c-0.007-0.005-0.014-0.011-0.02-0.018c-0.002-0.002-0.004-0.004-0.006-0.007c-0.007-0.009-0.014-0.019-0.018-0.029   c0-0.001-0.001-0.001-0.001-0.002c-0.002-0.004-0.002-0.007-0.003-0.011c-0.001-0.003-0.003-0.007-0.004-0.01   c0-0.001,0-0.002,0-0.002c-0.001-0.005-0.002-0.01-0.002-0.015c-0.001-0.004-0.001-0.008-0.001-0.012   C8.095,61.035,8.095,61.03,8.096,61.025z M10.885,65.446c-0.005,0-0.01-0.002-0.015-0.002c-0.005,0.001-0.01,0.002-0.015,0.002   c-0.043,0-0.084-0.02-0.109-0.056L8.12,61.719c-0.037-0.052-0.033-0.122,0.01-0.169c0.043-0.047,0.113-0.057,0.168-0.025   l2.571,1.528l2.571-1.528c0.055-0.033,0.125-0.022,0.168,0.025c0.043,0.047,0.047,0.118,0.01,0.169l-2.625,3.671   C10.969,65.426,10.927,65.446,10.885,65.446z M17.521,84.592c0-0.006,0-0.011,0.001-0.017c0.001-0.007,0.003-0.014,0.005-0.021   c0.002-0.006,0.003-0.011,0.005-0.017c0.003-0.007,0.006-0.013,0.01-0.02c0.002-0.004,0.004-0.009,0.006-0.013l3.898-6.461   c0.043-0.07,0.123-0.106,0.203-0.094c0.074-0.005,0.146,0.028,0.185,0.094l3.898,6.461c0.028,0.046,0.036,0.101,0.022,0.153   c-0.013,0.052-0.047,0.096-0.093,0.123l-3.898,2.263c-0.031,0.018-0.066,0.027-0.1,0.027c-0.008,0-0.015-0.002-0.023-0.003   c-0.008,0.001-0.015,0.003-0.023,0.003c-0.035,0-0.069-0.009-0.1-0.027l-3.898-2.263c-0.002-0.001-0.003-0.002-0.004-0.003   c-0.003-0.002-0.006-0.005-0.01-0.007c-0.011-0.008-0.021-0.017-0.031-0.026c-0.003-0.003-0.006-0.007-0.009-0.01   c-0.011-0.013-0.02-0.028-0.027-0.043c0-0.001-0.001-0.002-0.002-0.002c-0.002-0.005-0.003-0.011-0.005-0.016   c-0.002-0.005-0.004-0.01-0.006-0.015c0-0.001,0-0.002-0.001-0.004c-0.002-0.007-0.002-0.015-0.003-0.022   c-0.001-0.006-0.002-0.011-0.002-0.017C17.52,84.607,17.52,84.6,17.521,84.592z M25.724,85.624l-3.898,5.452   c-0.038,0.053-0.099,0.084-0.163,0.084c-0.008,0-0.015-0.003-0.023-0.004c-0.008,0.001-0.015,0.004-0.023,0.004   c-0.063,0-0.124-0.03-0.163-0.084l-3.898-5.452c-0.055-0.077-0.049-0.182,0.015-0.252c0.064-0.07,0.168-0.085,0.249-0.037   l3.819,2.27l3.819-2.27c0.081-0.048,0.185-0.033,0.249,0.037C25.773,85.442,25.779,85.547,25.724,85.624z M28.058,78.363   c-1.622-1.681-3.897-2.729-6.418-2.729c-0.948,0-1.861,0.149-2.718,0.423l-4.159-10.492c1.103-0.941,1.857-2.274,2.055-3.784   l9.273,0.29l-0.144,1.86l1.058,0.082l0.148-1.908l12.194,0.382c-0.001,0.081-0.006,0.16-0.006,0.241   c0,2.356,0.544,4.584,1.511,6.569L28.058,78.363z M61.233,64.53l-6.563,9.179c-0.064,0.09-0.167,0.141-0.274,0.141   c-0.013,0-0.026-0.005-0.039-0.006c-0.013,0.002-0.026,0.006-0.039,0.006c-0.107,0-0.209-0.051-0.274-0.141l-6.563-9.179   c-0.093-0.13-0.082-0.306,0.026-0.424c0.108-0.117,0.283-0.143,0.42-0.062l6.43,3.822l6.43-3.822   c0.137-0.081,0.312-0.056,0.42,0.062C61.315,64.223,61.326,64.4,61.233,64.53z M81.483,59.468L69.3,61.242   c-0.477-4.852-3.263-9.024-7.244-11.407l3.362-10.047c1.09,0.496,2.3,0.774,3.576,0.774c4.779,0,8.652-3.874,8.652-8.652   c0-1.841-0.577-3.546-1.557-4.949l11.429-12.382c1.08,1.041,2.546,1.684,4.164,1.684c0.184,0,0.365-0.011,0.545-0.028l-3.526,36.97   c-0.262-0.032-0.526-0.054-0.797-0.054C84.392,53.151,81.542,55.97,81.483,59.468z M87.921,64.34c-0.006,0-0.011-0.002-0.017-0.003   c-0.006,0.001-0.011,0.003-0.017,0.003c-0.046,0-0.09-0.022-0.117-0.06l-2.809-3.929c-0.04-0.055-0.035-0.131,0.011-0.181   c0.046-0.05,0.121-0.061,0.18-0.026l2.752,1.636l2.752-1.636c0.058-0.035,0.134-0.024,0.18,0.026   c0.046,0.05,0.051,0.126,0.011,0.181l-2.809,3.929C88.011,64.318,87.967,64.34,87.921,64.34z M82.839,86.655   c0-0.007,0.001-0.013,0.002-0.019c0.001-0.008,0.004-0.017,0.006-0.025c0.002-0.006,0.003-0.013,0.005-0.019   c0.003-0.008,0.007-0.016,0.011-0.023c0.003-0.005,0.004-0.011,0.007-0.016l4.548-7.537c0.05-0.082,0.144-0.124,0.237-0.109   c0.086-0.006,0.17,0.033,0.216,0.109l4.548,7.537c0.032,0.054,0.042,0.118,0.026,0.178c-0.016,0.061-0.055,0.112-0.109,0.144   l-4.548,2.64c-0.036,0.021-0.077,0.031-0.117,0.031c-0.009,0-0.018-0.002-0.027-0.003c-0.009,0.001-0.018,0.003-0.027,0.003   c-0.04,0-0.081-0.011-0.117-0.031l-4.548-2.64c-0.002-0.001-0.003-0.002-0.005-0.004c-0.004-0.002-0.007-0.005-0.011-0.008   c-0.013-0.009-0.025-0.019-0.036-0.031c-0.004-0.004-0.008-0.008-0.011-0.012c-0.013-0.015-0.023-0.032-0.032-0.05   c-0.001-0.001-0.001-0.002-0.002-0.003c-0.003-0.006-0.004-0.012-0.006-0.019c-0.002-0.006-0.005-0.011-0.006-0.018   c0-0.001,0-0.003-0.001-0.004c-0.002-0.008-0.003-0.017-0.004-0.025c-0.001-0.007-0.002-0.013-0.002-0.02   C82.838,86.672,82.838,86.664,82.839,86.655z M92.409,87.858l-4.548,6.36c-0.045,0.062-0.116,0.098-0.19,0.098   c-0.009,0-0.018-0.003-0.027-0.004c-0.009,0.001-0.018,0.004-0.027,0.004c-0.074,0-0.145-0.035-0.19-0.098l-4.548-6.36   c-0.064-0.09-0.057-0.212,0.018-0.293c0.075-0.081,0.196-0.099,0.291-0.043l4.455,2.648l4.455-2.648   c0.095-0.056,0.216-0.039,0.291,0.043C92.466,87.646,92.473,87.768,92.409,87.858z"/><polygon points="87.905,85.047 87.905,88.908 91.683,86.715  "/><polygon points="21.418,83.194 18.159,84.632 21.418,86.523  "/><polygon points="21.418,90.336 21.418,87.938 18.436,86.166  "/><polygon points="21.418,78.865 18.217,84.169 21.418,82.757  "/><polygon points="21.863,90.336 24.845,86.166 21.863,87.938  "/><polygon points="21.863,78.865 21.863,82.777 25.08,84.197  "/><polygon points="21.863,83.214 21.863,86.523 25.102,84.643  "/><polygon points="10.647,10.545 7.388,11.983 10.647,13.874  "/><polygon points="10.647,17.687 10.647,15.289 7.665,13.517  "/><polygon points="10.647,6.216 7.446,11.521 10.647,10.108  "/><polygon points="11.092,15.289 11.092,17.687 14.074,13.517  "/><polygon points="11.092,6.216 11.092,10.128 14.309,11.548  "/><polygon points="11.092,10.565 11.092,13.874 14.331,11.995  "/><polygon points="87.744,60.999 87.744,58.599 85.396,59.636  "/><polygon points="87.744,63.747 87.744,62.018 85.595,60.741  "/><polygon points="87.744,58.284 87.744,55.48 85.438,59.302  "/><polygon points="88.065,63.747 90.214,60.741 88.065,62.018  "/><polygon points="88.065,55.48 88.065,58.299 90.384,59.322  "/><polygon points="88.065,58.614 88.065,60.999 90.399,59.644  "/><polygon points="68.778,30.591 65.617,31.986 68.778,33.821  "/><polygon points="68.778,37.52 68.778,35.194 65.885,33.474  "/><polygon points="68.778,26.392 65.673,31.538 68.778,30.167  "/><polygon points="69.21,35.194 69.21,37.52 72.102,33.474  "/><polygon points="69.21,26.392 69.21,30.187 72.331,31.564  "/><polygon points="69.21,30.611 69.21,33.821 72.351,31.997  "/><rect x="15.535" y="21.685" transform="matrix(0.9142 -0.4053 0.4053 0.9142 -7.8523 8.4656)" width="1.062" height="2.182"/><rect x="17.303" y="25.674" transform="matrix(0.9142 -0.4053 0.4053 0.9142 -9.3179 9.5255)" width="1.062" height="2.182"/><rect x="19.071" y="29.663" transform="matrix(0.9142 -0.4053 0.4053 0.9142 -10.7829 10.5844)" width="1.062" height="2.182"/><rect x="20.839" y="33.652" transform="matrix(0.9142 -0.4053 0.4053 0.9142 -12.2479 11.6435)" width="1.062" height="2.181"/><rect x="47.716" y="32.407" transform="matrix(0.9732 -0.2301 0.2301 0.9732 -6.4125 12.001)" width="1.062" height="2.174"/><rect x="50.717" y="45.102" transform="matrix(0.9732 -0.2301 0.2301 0.9732 -9.2514 13.029)" width="1.062" height="2.174"/><rect x="45.716" y="23.944" transform="matrix(0.9732 -0.2301 0.2301 0.9732 -4.5188 11.3136)" width="1.062" height="2.174"/><rect x="49.717" y="40.87" transform="matrix(0.9732 -0.2301 0.2301 0.9732 -8.3063 12.6884)" width="1.062" height="2.174"/><rect x="48.717" y="36.639" transform="matrix(0.9732 -0.2301 0.2301 0.9732 -7.3594 12.3447)" width="1.062" height="2.174"/><rect x="46.716" y="28.175" transform="matrix(0.9732 -0.2301 0.2301 0.9732 -5.4657 11.6573)" width="1.062" height="2.174"/><rect x="72.969" y="76.999" transform="matrix(0.692 -0.7219 0.7219 0.692 -33.746 77.1197)" width="1.062" height="2.212"/><rect x="69.776" y="73.939" transform="matrix(0.6919 -0.7219 0.7219 0.6919 -32.52 73.8757)" width="1.062" height="2.212"/><rect x="76.163" y="80.06" transform="matrix(0.692 -0.7219 0.7219 0.692 -34.972 80.3683)" width="1.062" height="2.212"/><rect x="80.75" y="46.042" transform="matrix(0.8934 -0.4493 0.4493 0.8934 -12.546 41.5482)" width="1.062" height="2.341"/><rect x="82.853" y="50.224" transform="matrix(0.8934 -0.4493 0.4493 0.8934 -14.2007 42.9386)" width="1.062" height="2.341"/><rect x="76.545" y="37.678" transform="matrix(0.8934 -0.4493 0.4493 0.8934 -9.2366 38.7673)" width="1.062" height="2.341"/><rect x="78.648" y="41.86" transform="matrix(0.8934 -0.4492 0.4492 0.8934 -10.8912 40.1547)" width="1.062" height="2.341"/><rect x="26.175" y="54.548" transform="matrix(0.0775 -0.997 0.997 0.0775 -29.852 77.8954)" width="1.982" height="1.062"/><rect x="24.641" y="74.311" transform="matrix(0.0775 -0.997 0.997 0.0775 -50.9711 94.5973)" width="1.982" height="1.062"/><rect x="26.482" y="50.595" transform="matrix(0.0775 -0.997 0.997 0.0775 -25.6281 74.5551)" width="1.982" height="1.062"/><rect x="25.868" y="58.501" transform="matrix(0.0775 -0.997 0.997 0.0775 -34.076 81.2358)" width="1.982" height="1.062"/><rect x="25.255" y="66.406" transform="matrix(0.0775 -0.997 0.997 0.0775 -42.5234 87.9167)" width="1.982" height="1.062"/><rect x="24.948" y="70.359" transform="matrix(0.0775 -0.997 0.997 0.0775 -46.7472 91.2569)" width="1.982" height="1.062"/><rect x="49.554" y="86.718" transform="matrix(0.036 -0.9994 0.9994 0.036 -39.4404 134.6748)" width="1.062" height="2.124"/><rect x="41.064" y="86.413" transform="matrix(0.0361 -0.9993 0.9993 0.0361 -47.3217 125.8891)" width="1.062" height="2.124"/><rect x="45.309" y="86.565" transform="matrix(0.036 -0.9994 0.9994 0.036 -43.3794 130.2855)" width="1.062" height="2.124"/><rect x="36.82" y="86.26" transform="matrix(0.036 -0.9994 0.9994 0.036 -51.2577 121.5071)" width="1.062" height="2.124"/><rect x="53.798" y="86.871" transform="matrix(0.036 -0.9994 0.9994 0.036 -35.5013 139.0641)" width="1.062" height="2.124"/><rect x="32.575" y="86.107" transform="matrix(0.036 -0.9994 0.9994 0.036 -55.1968 117.1178)" width="1.062" height="2.124"/><rect x="75.021" y="87.636" transform="matrix(0.036 -0.9994 0.9994 0.036 -15.8058 161.0104)" width="1.062" height="2.124"/><rect x="70.777" y="87.483" transform="matrix(0.036 -0.9994 0.9994 0.036 -19.7449 156.6211)" width="1.062" height="2.124"/><rect x="62.287" y="87.177" transform="matrix(0.0361 -0.9993 0.9993 0.0361 -27.6279 147.8353)" width="1.062" height="2.124"/><rect x="66.532" y="87.33" transform="matrix(0.036 -0.9994 0.9994 0.036 -23.6839 152.2318)" width="1.062" height="2.124"/><rect x="58.043" y="87.024" transform="matrix(0.0361 -0.9993 0.9993 0.0361 -31.5667 143.446)" width="1.062" height="2.124"/></g></svg>
