<svg xmlns="http://www.w3.org/2000/svg" xmlns:xlink="http://www.w3.org/1999/xlink" version="1.1" x="0px" y="0px" viewBox="0 0 100 125" style="enable-background:new 0 0 100 100;" xml:space="preserve"><g><path d="M21.283,34.157c0.002,0.014,0.006,0.028,0.009,0.041c0.004,0.018,0.008,0.037,0.014,0.055   c0.005,0.014,0.011,0.027,0.017,0.04c0.008,0.017,0.014,0.034,0.024,0.05c0.001,0.003,0.002,0.006,0.004,0.008   c0.007,0.012,0.016,0.021,0.024,0.032c0.008,0.012,0.015,0.024,0.024,0.035c0.002,0.002,0.004,0.003,0.006,0.005   c0.029,0.032,0.062,0.06,0.097,0.084c0.01,0.007,0.02,0.012,0.03,0.018c0.029,0.017,0.06,0.031,0.092,0.041   c0.01,0.003,0.019,0.007,0.028,0.01c0.004,0.001,0.008,0.003,0.012,0.004l11.045,2.624c0.088,0.021,0.178,0.017,0.262-0.008   c0.019-0.006,0.035-0.016,0.053-0.024c0.019-0.003,0.039-0.004,0.057-0.009c0.083-0.025,0.161-0.072,0.222-0.138l7.757-8.289   c0.092-0.099,0.141-0.23,0.135-0.365c-0.006-0.135-0.065-0.262-0.165-0.352L26.936,15.27c-0.142-0.128-0.34-0.157-0.515-0.091   c-0.202,0.027-0.37,0.172-0.421,0.373l-4.707,18.413c-0.003,0.012-0.003,0.025-0.005,0.037c-0.003,0.018-0.007,0.037-0.008,0.055   c-0.001,0.015,0,0.029,0.001,0.043C21.28,34.12,21.28,34.138,21.283,34.157z M22.86,33.829l6.813-5.835l2.419,8.029L22.86,33.829z    M33.167,35.699l-2.404-7.98l8.849,1.094L33.167,35.699z M39.234,27.751l-8.79-1.086l-2.842-9.434L39.234,27.751z M26.528,17.554   l2.828,9.386l-6.692,5.732L26.528,17.554z"/><path d="M28.038,78.58c-2.818,0-5.109,2.292-5.109,5.109c0,2.817,2.292,5.109,5.109,5.109c2.817,0,5.109-2.292,5.109-5.109   C33.147,80.871,30.855,78.58,28.038,78.58z M28.038,87.084c-1.872,0-3.395-1.523-3.395-3.395c0-1.872,1.523-3.395,3.395-3.395   c1.872,0,3.395,1.523,3.395,3.395C31.433,85.561,29.909,87.084,28.038,87.084z"/><path d="M70.898,78.58c-2.817,0-5.109,2.292-5.109,5.109c0,2.817,2.292,5.109,5.109,5.109c2.817,0,5.109-2.292,5.109-5.109   C76.007,80.871,73.715,78.58,70.898,78.58z M70.898,87.084c-1.872,0-3.395-1.523-3.395-3.395c0-1.872,1.523-3.395,3.395-3.395   c1.872,0,3.395,1.523,3.395,3.395C74.293,85.561,72.77,87.084,70.898,87.084z"/><path d="M90.78,70.664h-4.205l1.814-20.972h1.21v-8.739h-0.042l1.544-1.2l1.429-11.405l-7.055-9.076l-11.405-1.429l-4.749,3.692   l-7.231-2.144l-7.11,3.858l-0.704,2.374c-0.108-0.452-0.225-0.905-0.36-1.356C50.14,11.741,36.88,4.621,24.354,8.395   C11.829,12.168,4.708,25.429,8.482,37.954c0.355,1.178,0.796,2.306,1.311,3.384v8.354h1.896L13.772,78.6   c0.015,2.857,2.039,5.245,4.727,5.829c-0.019-0.245-0.031-0.491-0.031-0.74c0-0.345,0.019-0.686,0.055-1.022   c-1.756-0.536-3.036-2.17-3.036-4.099l-2.079-28.876h73.26l-2.491,28.803l-0.003,0.074c0,2.18-1.638,3.981-3.746,4.248   c0.026,0.288,0.041,0.578,0.041,0.873c0,0.287-0.015,0.571-0.04,0.852c2.948-0.265,5.281-2.669,5.443-5.644   c0.122,0.028,0.246,0.044,0.372,0.044h3.899c0.851,0,1.576-0.637,1.686-1.48l0.637-4.876c0.063-0.485-0.085-0.974-0.408-1.342   C91.735,70.875,91.27,70.664,90.78,70.664z M74.56,19.632l9.996,1.252l6.183,7.954l-1.253,9.997l-2.724,2.117h-2.234l0.882-2.213   l-2.767-6.435l-6.507-2.594l-6.434,2.767L67.35,38.38l-1.996-2.569l1.253-9.996L74.56,19.632z M83.556,38.764l-0.873,2.189h-12.86   l-0.857-1.993l2.068-5.187l5.13-2.206l5.187,2.067L83.556,38.764z M67.179,40.952H65.95l-0.866-2.695L67.179,40.952z M56.42,24.417   l5.862-3.181l5.373,1.593l-2.662,2.069l-1.179,9.41l-0.501-1.558l-8.127-4.173L56.42,24.417z M61.899,33.95l2.25,7.002h-1.451   l0.482-1.624l-2.497-4.603l-5.022-1.489l-4.603,2.498l-1.49,5.021l0.108,0.198h-9.101l-0.043-0.134l4.246-8.27l8.851-2.845   L61.899,33.95z M61.334,39.522l-0.424,1.431h-9.284l-0.213-0.391l1.085-3.659l3.355-1.821l3.66,1.085L61.334,39.522z    M25.162,11.074c11.048-3.329,22.744,2.952,26.072,14c0.338,1.12,0.566,2.247,0.71,3.37l-8.367,2.689l-4.895,9.533l0.092,0.286   h-0.432l3.482-10.228c0.077-0.225-0.015-0.474-0.22-0.595c-0.205-0.121-0.467-0.083-0.628,0.093l-7.561,8.249l-10.859-2.7   c-0.231-0.058-0.471,0.055-0.575,0.269c-0.104,0.215-0.043,0.472,0.145,0.618l5.562,4.294h-14.95   c-0.637-1.194-1.173-2.462-1.577-3.805C7.833,26.099,14.114,14.403,25.162,11.074z M37.279,40.952h-2.53l-0.555-1.841l5.903-6.441   L37.279,40.952z M33.577,40.952h-4.24l-4.696-3.625l8.479,2.108L33.577,40.952z M11.507,47.978v-5.311h76.376v5.311H11.507z    M90.131,77.226l-3.874,0.015l0.28-4.863l4.229-0.016L90.131,77.226z"/><path d="M28.038,74.761c-4.923,0-8.928,4.005-8.928,8.928c0,4.922,4.005,8.927,8.928,8.927c4.922,0,8.927-4.005,8.927-8.927   C36.965,78.766,32.96,74.761,28.038,74.761z M28.038,90.902c-3.977,0-7.213-3.236-7.213-7.213c0-3.977,3.236-7.213,7.213-7.213   s7.213,3.236,7.213,7.213C35.251,87.666,32.015,90.902,28.038,90.902z"/><path d="M70.898,74.761c-4.922,0-8.927,4.005-8.927,8.928c0,4.922,4.005,8.927,8.927,8.927s8.927-4.005,8.927-8.927   C79.826,78.766,75.821,74.761,70.898,74.761z M70.898,90.902c-3.977,0-7.213-3.236-7.213-7.213c0-3.977,3.236-7.213,7.213-7.213   c3.977,0,7.213,3.236,7.213,7.213C78.111,87.666,74.876,90.902,70.898,90.902z"/><path d="M61.367,82.854H37.569c0.024,0.275,0.039,0.554,0.039,0.835c0,0.297-0.015,0.59-0.042,0.879H61.37   c-0.026-0.29-0.042-0.583-0.042-0.879C61.328,83.408,61.343,83.129,61.367,82.854z"/></g></svg>
